<svg width="97" height="97" viewBox="0 0 97 97" fill="none" xmlns="http://www.w3.org/2000/svg">
<rect width="97" height="97" transform="matrix(0 1 -1 0 97 0)" fill="black"/>
<path d="M88 92C89.1046 92 90 92.8954 90 94V95H65V94C65 92.8954 65.8954 92 67 92H88Z" fill="#FFD500"/>
<path d="M59 92C60.1046 92 61 92.8954 61 94V95H36V94C36 92.8954 36.8954 92 38 92H59Z" fill="black"/>
<path d="M30 92C31.1046 92 32 92.8954 32 94V95H7.00001V94C7.00001 92.8954 7.89544 92 9.00001 92H30Z" fill="black"/>
<path d="M92 9C92 7.89543 92.8954 7 94 7H95V32H94C92.8954 32 92 31.1046 92 30V9Z" fill="black"/>
<path d="M92 38C92 36.8954 92.8954 36 94 36H95V61H94C92.8954 61 92 60.1046 92 59V38Z" fill="black"/>
<path d="M92 67C92 65.8954 92.8954 65 94 65H95V90H94C92.8954 90 92 89.1046 92 88V67Z" fill="black"/>
<path d="M2.00001 7H3.00001C4.10458 7 5.00001 7.89543 5.00001 9L5.00001 30C5.00001 31.1046 4.10458 32 3.00001 32H2.00001L2.00001 7Z" fill="#FFD500"/>
<path d="M2.00001 36H3.00001C4.10458 36 5.00001 36.8954 5.00001 38L5.00001 59C5.00001 60.1046 4.10458 61 3.00001 61H2.00001L2.00001 36Z" fill="#FFD500"/>
<path d="M2.00001 65H3.00001C4.10458 65 5.00001 65.8954 5.00001 67L5.00001 88C5.00001 89.1046 4.10458 90 3.00001 90H2.00001L2.00001 65Z" fill="#FFD500"/>
<path d="M90 2V3C90 4.10457 89.1046 5 88 5H67C65.8954 5 65 4.10457 65 3V2L90 2Z" fill="#FFD500"/>
<path d="M61 2V3C61 4.10457 60.1046 5 59 5H38C36.8954 5 36 4.10457 36 3V2L61 2Z" fill="#FFD500"/>
<path d="M32 2V3C32 4.10457 31.1046 5 30 5H9.00001C7.89544 5 7.00001 4.10457 7.00001 3V2L32 2Z" fill="black"/>
<path d="M30 65C31.1046 65 32 65.8954 32 67V88C32 89.1046 31.1046 90 30 90H9.00001C7.89544 90 7.00001 89.1046 7.00001 88V67C7.00001 65.8954 7.89544 65 9.00001 65H30Z" fill="black"/>
<path d="M88 7C89.1046 7 90 7.89543 90 9V30C90 31.1046 89.1046 32 88 32H67C65.8954 32 65 31.1046 65 30V9C65 7.89543 65.8954 7 67 7L88 7Z" fill="black"/>
<path d="M88 36C89.1046 36 90 36.8954 90 38V59C90 60.1046 89.1046 61 88 61H67C65.8954 61 65 60.1046 65 59V38C65 36.8954 65.8954 36 67 36H88Z" fill="#FFD500"/>
<path d="M88 65C89.1046 65 90 65.8954 90 67V88C90 89.1046 89.1046 90 88 90H67C65.8954 90 65 89.1046 65 88V67C65 65.8954 65.8954 65 67 65H88Z" fill="black"/>
<path d="M59 7C60.1046 7 61 7.89543 61 9V30C61 31.1046 60.1046 32 59 32H38C36.8954 32 36 31.1046 36 30V9C36 7.89543 36.8954 7 38 7L59 7Z" fill="black"/>
<path d="M59 36C60.1046 36 61 36.8954 61 38V59C61 60.1046 60.1046 61 59 61H38C36.8954 61 36 60.1046 36 59V38C36 36.8954 36.8954 36 38 36H59Z" fill="#FFD500"/>
<path d="M59 65C60.1046 65 61 65.8954 61 67V88C61 89.1046 60.1046 90 59 90H38C36.8954 90 36 89.1046 36 88V67C36 65.8954 36.8954 65 38 65H59Z" fill="#FFD500"/>
<path d="M30 7C31.1046 7 32 7.89543 32 9V30C32 31.1046 31.1046 32 30 32H9.00001C7.89544 32 7.00001 31.1046 7.00001 30V9C7.00001 7.89543 7.89544 7 9.00001 7L30 7Z" fill="black"/>
<path d="M30 36C31.1046 36 32 36.8954 32 38V59C32 60.1046 31.1046 61 30 61H9.00001C7.89544 61 7.00001 60.1046 7.00001 59V38C7.00001 36.8954 7.89544 36 9.00001 36H30Z" fill="black"/>
</svg>
