<svg width="97" height="97" viewBox="0 0 97 97" fill="none" xmlns="http://www.w3.org/2000/svg">
<rect width="97" height="97" fill="black"/>
<path d="M92 9C92 7.89543 92.8954 7 94 7H95V32H94C92.8954 32 92 31.1046 92 30V9Z" fill="#FFD500"/>
<path d="M92 38C92 36.8954 92.8954 36 94 36H95V61H94C92.8954 61 92 60.1046 92 59V38Z" fill="#FFD500"/>
<path d="M92 67C92 65.8954 92.8954 65 94 65H95V90H94C92.8954 90 92 89.1046 92 88V67Z" fill="#FFD500"/>
<path d="M9 5C7.89543 5 7 4.10457 7 3V2L32 2V3C32 4.10457 31.1046 5 30 5L9 5Z" fill="black"/>
<path d="M38 5C36.8954 5 36 4.10457 36 3V2L61 2V3C61 4.10457 60.1046 5 59 5L38 5Z" fill="black"/>
<path d="M67 5C65.8954 5 65 4.10457 65 3V2L90 2V3C90 4.10457 89.1046 5 88 5L67 5Z" fill="black"/>
<path d="M7 95V94C7 92.8954 7.89543 92 9 92H30C31.1046 92 32 92.8954 32 94V95H7Z" fill="black"/>
<path d="M36 95V94C36 92.8954 36.8954 92 38 92H59C60.1046 92 61 92.8954 61 94V95H36Z" fill="black"/>
<path d="M65 95V94C65 92.8954 65.8954 92 67 92H88C89.1046 92 90 92.8954 90 94V95H65Z" fill="black"/>
<path d="M2 7H3C4.10457 7 5 7.89543 5 9V30C5 31.1046 4.10457 32 3 32H2V7Z" fill="black"/>
<path d="M2 36H3C4.10457 36 5 36.8954 5 38V59C5 60.1046 4.10457 61 3 61H2V36Z" fill="#FFD500"/>
<path d="M2 65H3C4.10457 65 5 65.8954 5 67V88C5 89.1046 4.10457 90 3 90H2V65Z" fill="black"/>
<path d="M65 67C65 65.8954 65.8954 65 67 65H88C89.1046 65 90 65.8954 90 67V88C90 89.1046 89.1046 90 88 90H67C65.8954 90 65 89.1046 65 88V67Z" fill="black"/>
<path d="M7 9C7 7.89543 7.89543 7 9 7H30C31.1046 7 32 7.89543 32 9V30C32 31.1046 31.1046 32 30 32H9C7.89543 32 7 31.1046 7 30V9Z" fill="#FFD500"/>
<path d="M36 9C36 7.89543 36.8954 7 38 7H59C60.1046 7 61 7.89543 61 9V30C61 31.1046 60.1046 32 59 32H38C36.8954 32 36 31.1046 36 30V9Z" fill="#FFD500"/>
<path d="M65 9C65 7.89543 65.8954 7 67 7H88C89.1046 7 90 7.89543 90 9V30C90 31.1046 89.1046 32 88 32H67C65.8954 32 65 31.1046 65 30V9Z" fill="black"/>
<path d="M7 38C7 36.8954 7.89543 36 9 36H30C31.1046 36 32 36.8954 32 38V59C32 60.1046 31.1046 61 30 61H9C7.89543 61 7 60.1046 7 59V38Z" fill="black"/>
<path d="M36 38C36 36.8954 36.8954 36 38 36H59C60.1046 36 61 36.8954 61 38V59C61 60.1046 60.1046 61 59 61H38C36.8954 61 36 60.1046 36 59V38Z" fill="#FFD500"/>
<path d="M65 38C65 36.8954 65.8954 36 67 36H88C89.1046 36 90 36.8954 90 38V59C90 60.1046 89.1046 61 88 61H67C65.8954 61 65 60.1046 65 59V38Z" fill="black"/>
<path d="M7 67C7 65.8954 7.89543 65 9 65H30C31.1046 65 32 65.8954 32 67V88C32 89.1046 31.1046 90 30 90H9C7.89543 90 7 89.1046 7 88V67Z" fill="#FFD500"/>
<path d="M36 67C36 65.8954 36.8954 65 38 65H59C60.1046 65 61 65.8954 61 67V88C61 89.1046 60.1046 90 59 90H38C36.8954 90 36 89.1046 36 88V67Z" fill="#FFD500"/>
</svg>
