<svg width="66" height="66" viewBox="0 0 66 66" fill="none" xmlns="http://www.w3.org/2000/svg">
<rect width="66" height="66" fill="black"/>
<path d="M61 9C61 7.89543 61.8954 7 63 7H64V32H63C61.8954 32 61 31.1046 61 30V9Z" fill="black"/>
<path d="M61 36C61 34.8954 61.8954 34 63 34H64V59H63C61.8954 59 61 58.1046 61 57V36Z" fill="#FFD500"/>
<path d="M9 5C7.89543 5 7 4.10457 7 3V2L32 2V3C32 4.10457 31.1046 5 30 5L9 5Z" fill="black"/>
<path d="M36 5C34.8954 5 34 4.10457 34 3V2L59 2V3C59 4.10457 58.1046 5 57 5L36 5Z" fill="black"/>
<path d="M7 64V63C7 61.8954 7.89543 61 9 61H30C31.1046 61 32 61.8954 32 63V64H7Z" fill="#FFD500"/>
<path d="M34 64V63C34 61.8954 34.8954 61 36 61H57C58.1046 61 59 61.8954 59 63V64H34Z" fill="black"/>
<path d="M2 7H3C4.10457 7 5 7.89543 5 9V30C5 31.1046 4.10457 32 3 32H2V7Z" fill="#FFD500"/>
<path d="M2 34H3C4.10457 34 5 34.8954 5 36V57C5 58.1046 4.10457 59 3 59H2V34Z" fill="black"/>
<path d="M7 9C7 7.89543 7.89543 7 9 7H30C31.1046 7 32 7.89543 32 9V30C32 31.1046 31.1046 32 30 32H9C7.89543 32 7 31.1046 7 30V9Z" fill="#303030"/>
<path d="M34 9C34 7.89543 34.8954 7 36 7H57C58.1046 7 59 7.89543 59 9V30C59 31.1046 58.1046 32 57 32H36C34.8954 32 34 31.1046 34 30V9Z" fill="#FFD500"/>
<path d="M7 36C7 34.8954 7.89543 34 9 34H30C31.1046 34 32 34.8954 32 36V57C32 58.1046 31.1046 59 30 59H9C7.89543 59 7 58.1046 7 57V36Z" fill="#303030"/>
<path d="M34 36C34 34.8954 34.8954 34 36 34H57C58.1046 34 59 34.8954 59 36V57C59 58.1046 58.1046 59 57 59H36C34.8954 59 34 58.1046 34 57V36Z" fill="#303030"/>
</svg>
